<?xml version="1.0" encoding="iso-8859-1"?>
<!-- Generator: Adobe Illustrator 19.0.0, SVG Export Plug-In . SVG Version: 6.00 Build 0)  -->
<svg version="1.1" id="Capa_1" xmlns="http://www.w3.org/2000/svg" xmlns:xlink="http://www.w3.org/1999/xlink" x="0px" y="0px"
	 viewBox="0 0 464 464" style="enable-background:new 0 0 464 464;" xml:space="preserve">
<path style="fill:#FFD782;" d="M400,464H96l-32-32V0h304l32,32V464z"/>
<g>
	<path style="fill:#7D8D9C;" d="M336,144H128c-4.418,0-8-3.582-8-8s3.582-8,8-8h208c4.418,0,8,3.582,8,8S340.418,144,336,144z"/>
	<path id="SVGCleanerId_0" style="fill:#7D8D9C;" d="M336,192H128c-4.418,0-8-3.582-8-8s3.582-8,8-8h208c4.418,0,8,3.582,8,8
		S340.418,192,336,192z"/>
	<g>
		<path id="SVGCleanerId_1" style="fill:#7D8D9C;" d="M336,240H128c-4.418,0-8-3.582-8-8s3.582-8,8-8h208c4.418,0,8,3.582,8,8
			S340.418,240,336,240z"/>
	</g>
	<path style="fill:#7D8D9C;" d="M336,288H128c-4.418,0-8-3.582-8-8s3.582-8,8-8h208c4.418,0,8,3.582,8,8S340.418,288,336,288z"/>
	<g>
		<path id="SVGCleanerId_0_1_" style="fill:#7D8D9C;" d="M336,192H128c-4.418,0-8-3.582-8-8s3.582-8,8-8h208c4.418,0,8,3.582,8,8
			S340.418,192,336,192z"/>
	</g>
	<g>
		<path id="SVGCleanerId_1_1_" style="fill:#7D8D9C;" d="M336,240H128c-4.418,0-8-3.582-8-8s3.582-8,8-8h208c4.418,0,8,3.582,8,8
			S340.418,240,336,240z"/>
	</g>
	<path id="SVGCleanerId_2" style="fill:#7D8D9C;" d="M336,288H128c-4.418,0-8-3.582-8-8s3.582-8,8-8h208c4.418,0,8,3.582,8,8
		S340.418,288,336,288z"/>
	<path id="SVGCleanerId_3" style="fill:#7D8D9C;" d="M336,336H128c-4.418,0-8-3.582-8-8s3.582-8,8-8h208c4.418,0,8,3.582,8,8
		S340.418,336,336,336z"/>
	<g>
		<path id="SVGCleanerId_1_2_" style="fill:#7D8D9C;" d="M336,240H128c-4.418,0-8-3.582-8-8s3.582-8,8-8h208c4.418,0,8,3.582,8,8
			S340.418,240,336,240z"/>
	</g>
	<g>
		<path id="SVGCleanerId_2_1_" style="fill:#7D8D9C;" d="M336,288H128c-4.418,0-8-3.582-8-8s3.582-8,8-8h208c4.418,0,8,3.582,8,8
			S340.418,288,336,288z"/>
	</g>
	<g>
		<path id="SVGCleanerId_3_1_" style="fill:#7D8D9C;" d="M336,336H128c-4.418,0-8-3.582-8-8s3.582-8,8-8h208c4.418,0,8,3.582,8,8
			S340.418,336,336,336z"/>
	</g>
	<path style="fill:#7D8D9C;" d="M336,384H128c-4.418,0-8-3.582-8-8s3.582-8,8-8h208c4.418,0,8,3.582,8,8S340.418,384,336,384z"/>
</g>
<path style="fill:#D3843D;" d="M400,104L296,0v104H400z"/>
<circle style="fill:#2D75BB;" cx="232" cy="80" r="24"/>
<g>
</g>
<g>
</g>
<g>
</g>
<g>
</g>
<g>
</g>
<g>
</g>
<g>
</g>
<g>
</g>
<g>
</g>
<g>
</g>
<g>
</g>
<g>
</g>
<g>
</g>
<g>
</g>
<g>
</g>
</svg>
