<svg height="512" viewBox="0 0 128 128" width="512" xmlns="http://www.w3.org/2000/svg"><g><path d="m1.75 28v71.652a4.476 4.476 0 0 0 4.476 4.476h66.674a22.52 22.52 0 0 1 6.086-24.482v.054h30.084v-.051a22.52 22.52 0 0 1 6.086 24.482h6.622a4.476 4.476 0 0 0 4.476-4.476v-71.655z" fill="#f4d844"/><path d="m94.024 74.052a1.75 1.75 0 0 1 -1.75-1.75v-3.645a10.249 10.249 0 0 1 6.032-9.329 1.75 1.75 0 0 1 1.437 3.192 6.742 6.742 0 0 0 -3.969 6.137v3.643a1.749 1.749 0 0 1 -1.75 1.752z" fill="#eaeaf0"/><path d="m6.75 9.124h114.5a5 5 0 0 1 5 5v13.876a0 0 0 0 1 0 0h-124.5a0 0 0 0 1 0 0v-13.876a5 5 0 0 1 5-5z" fill="#607880"/><g fill="#94e0da"><path d="m118.25 20.312h-68.563a1.75 1.75 0 0 1 0-3.5h68.563a1.75 1.75 0 0 1 0 3.5z"/><path d="m14.377 20.312h-4.627a1.75 1.75 0 0 1 0-3.5h4.627a1.75 1.75 0 0 1 0 3.5z"/><path d="m27.689 20.312h-4.627a1.75 1.75 0 0 1 0-3.5h4.627a1.75 1.75 0 0 1 0 3.5z"/><path d="m41 20.312h-4.625a1.75 1.75 0 0 1 0-3.5h4.625a1.75 1.75 0 0 1 0 3.5z"/><path d="m83.982 72.3h20.083a5 5 0 0 1 5 5v2.4a0 0 0 0 1 0 0h-30.083a0 0 0 0 1 0 0v-2.4a5 5 0 0 1 5-5z"/></g><path d="m109.066 79.646v.054h-30.084v-.051a22.5 22.5 0 1 0 30.084 0z" fill="#607880"/><path d="m99.024 55.421a1.75 1.75 0 0 1 -1.75-1.75v-3.688a1.75 1.75 0 0 1 3.5 0v3.688a1.749 1.749 0 0 1 -1.75 1.75z" fill="#de6246"/><path d="m104.152 57.545a1.75 1.75 0 0 1 -1.237-2.987l2.607-2.608a1.75 1.75 0 0 1 2.478 2.475l-2.607 2.607a1.744 1.744 0 0 1 -1.241.513z" fill="#de6246"/><path d="m109.965 62.674h-3.688a1.75 1.75 0 0 1 0-3.5h3.688a1.75 1.75 0 0 1 0 3.5z" fill="#de6246"/><path d="m21.376 61.868h-7.876a1.749 1.749 0 0 1 -1.75-1.75v-18.3a1.75 1.75 0 0 1 1.75-1.75h7.876a5.756 5.756 0 0 1 5.75 5.75v10.3a5.756 5.756 0 0 1 -5.75 5.75zm-6.126-3.5h6.126a2.253 2.253 0 0 0 2.25-2.25v-10.3a2.253 2.253 0 0 0 -2.25-2.25h-6.126z" fill="#607880"/><path d="m40.627 61.868h-7.876a1.749 1.749 0 0 1 -1.751-1.75v-18.3a1.75 1.75 0 0 1 1.75-1.75h7.876a5.756 5.756 0 0 1 5.75 5.75v10.3a5.756 5.756 0 0 1 -5.749 5.75zm-6.126-3.5h6.126a2.253 2.253 0 0 0 2.25-2.25v-10.3a2.253 2.253 0 0 0 -2.25-2.25h-6.127z" fill="#607880"/><path d="m57.25 61.868h-2.25a4.756 4.756 0 0 1 -4.75-4.75v-5.784a4.756 4.756 0 0 1 4.75-4.75h2.25a4.756 4.756 0 0 1 4.75 4.75v5.784a4.756 4.756 0 0 1 -4.75 4.75zm-2.25-11.784a1.252 1.252 0 0 0 -1.25 1.25v5.784a1.251 1.251 0 0 0 1.25 1.25h2.25a1.251 1.251 0 0 0 1.25-1.25v-5.784a1.252 1.252 0 0 0 -1.25-1.25z" fill="#607880"/><path d="m76.328 61.868h-7.876a1.75 1.75 0 0 1 0-3.5h7.876a2.253 2.253 0 0 0 2.25-2.25v-3.4h-10.126a1.749 1.749 0 0 1 -1.75-1.75v-5.15a5.756 5.756 0 0 1 5.75-5.75h7.876a1.75 1.75 0 0 1 0 3.5h-7.876a2.253 2.253 0 0 0 -2.25 2.25v3.4h10.126a1.749 1.749 0 0 1 1.75 1.75v5.149a5.756 5.756 0 0 1 -5.75 5.751z" fill="#607880"/></g></svg>