<?xml version="1.0" encoding="iso-8859-1"?>
<!-- Generator: Adobe Illustrator 19.0.0, SVG Export Plug-In . SVG Version: 6.00 Build 0)  -->
<svg version="1.1" id="Layer_1" xmlns="http://www.w3.org/2000/svg" xmlns:xlink="http://www.w3.org/1999/xlink" x="0px" y="0px"
	 viewBox="0 0 512 512" style="enable-background:new 0 0 512 512;" xml:space="preserve">
<linearGradient id="SVGID_1_" gradientUnits="userSpaceOnUse" x1="-29.9375" y1="613.3125" x2="-29.9375" y2="643.3125" gradientTransform="matrix(16 0 0 -16 735 10309)">
	<stop  offset="0" style="stop-color:#B366FF"/>
	<stop  offset="1" style="stop-color:#E566FF"/>
</linearGradient>
<circle style="fill:url(#SVGID_1_);" cx="256" cy="256" r="240"/>
<rect id="SVGCleanerId_0" x="127.998" y="162.729" transform="matrix(-0.7071 0.7071 -0.7071 -0.7071 392.8866 253.2305)" style="fill:#5E4D80;" width="32" height="90.511"/>
<rect id="SVGCleanerId_1" x="322.721" y="192.001" transform="matrix(-0.7071 0.7071 -0.7071 -0.7071 775.2543 94.8811)" style="fill:#5E4D80;" width="90.511" height="32"/>
<path id="SVGCleanerId_2" style="fill:#5E4D80;" d="M362.336,327.088C339.28,361.408,300.272,384,256,384
	s-83.28-22.592-106.336-56.912l-26.576,17.824C151.76,387.696,200.64,416,256,416s104.24-28.304,132.912-71.088L362.336,327.088
	L362.336,327.088z"/>
<path id="SVGCleanerId_3" style="fill:#7B52CC;" d="M457.76,98.8c1.168-1.824,2.624-3.504,3.68-5.36
	c13.44-23.68,17.28-48.64,16-65.92c-0.64-8.96-1.92-15.68-3.52-20.48C472.64,2.56,472,0,472,0h-16c0,0-3.2,9.28-11.2,19.2
	c-7.68,10.24-21.12,19.84-34.24,23.36c-3.936,0.912-7.648,1.264-11.2,1.344C358.464,16.192,309.12,0,256,0
	S153.536,16.192,112.64,43.904c-3.568-0.08-7.264-0.432-11.2-1.344C88.32,39.04,74.88,29.44,67.2,19.2C59.2,9.28,56,0,56,0H40
	c0,0-0.64,2.56-1.92,7.04c-1.6,4.8-2.88,11.52-3.52,20.48c-1.28,17.28,2.56,42.24,16,65.92c1.056,1.856,2.496,3.552,3.68,5.36
	C20.368,142.208,0,196.672,0,256c0,141.392,114.608,255.984,256,256c141.392,0,255.984-114.608,256-256
	C512,196.672,491.632,142.208,457.76,98.8z M414.4,414.4C373.76,455.04,317.76,480,256,480s-117.76-24.96-158.4-65.6
	S32,317.76,32,256c0-49.28,16-94.72,43.2-131.84c6.4-9.28,14.08-18.24,22.4-26.56c14.4-14.4,30.4-26.56,48-36.48
	C178.24,42.56,216,32,256,32s77.76,10.56,110.4,29.12c17.6,9.92,33.6,22.08,48,36.48c8.32,8.32,16,17.28,22.4,26.56
	C464,161.28,480,206.72,480,256C480,317.76,455.04,373.76,414.4,414.4z"/>
<linearGradient id="SVGID_2_" gradientUnits="userSpaceOnUse" x1="-29.9375" y1="613.3125" x2="-29.9375" y2="643.3125" gradientTransform="matrix(16 0 0 -16 735 10309)">
	<stop  offset="0" style="stop-color:#B366FF"/>
	<stop  offset="1" style="stop-color:#E566FF"/>
</linearGradient>
<circle style="fill:url(#SVGID_2_);" cx="256" cy="256" r="240"/>
<linearGradient id="SVGID_3_" gradientUnits="userSpaceOnUse" x1="-29.938" y1="634.3125" x2="-29.938" y2="642.3125" gradientTransform="matrix(16 0 0 -16 735 10309)">
	<stop  offset="0" style="stop-color:#FAFBFB;stop-opacity:0"/>
	<stop  offset="1" style="stop-color:#FAFBFB"/>
</linearGradient>
<path style="fill:url(#SVGID_3_);" d="M256,32c-61.904,0-117.808,27.392-158.4,67.952C80.816,116.736,66.896,144,56.096,160h399.792
	c-10.8-16-24.72-43.248-41.504-60.048C373.808,59.392,317.904,32,256,32z"/>
<g>
	
		<rect id="SVGCleanerId_0_1_" x="127.998" y="162.729" transform="matrix(-0.7071 0.7071 -0.7071 -0.7071 392.8866 253.2305)" style="fill:#5E4D80;" width="32" height="90.511"/>
</g>
<g>
	
		<rect id="SVGCleanerId_1_1_" x="322.721" y="192.001" transform="matrix(-0.7071 0.7071 -0.7071 -0.7071 775.2543 94.8811)" style="fill:#5E4D80;" width="90.511" height="32"/>
</g>
<g>
	<path id="SVGCleanerId_2_1_" style="fill:#5E4D80;" d="M362.336,327.088C339.28,361.408,300.272,384,256,384
		s-83.28-22.592-106.336-56.912l-26.576,17.824C151.76,387.696,200.64,416,256,416s104.24-28.304,132.912-71.088L362.336,327.088
		L362.336,327.088z"/>
</g>
<g>
	<path id="SVGCleanerId_3_1_" style="fill:#7B52CC;" d="M457.76,98.8c1.168-1.824,2.624-3.504,3.68-5.36
		c13.44-23.68,17.28-48.64,16-65.92c-0.64-8.96-1.92-15.68-3.52-20.48C472.64,2.56,472,0,472,0h-16c0,0-3.2,9.28-11.2,19.2
		c-7.68,10.24-21.12,19.84-34.24,23.36c-3.936,0.912-7.648,1.264-11.2,1.344C358.464,16.192,309.12,0,256,0
		S153.536,16.192,112.64,43.904c-3.568-0.08-7.264-0.432-11.2-1.344C88.32,39.04,74.88,29.44,67.2,19.2C59.2,9.28,56,0,56,0H40
		c0,0-0.64,2.56-1.92,7.04c-1.6,4.8-2.88,11.52-3.52,20.48c-1.28,17.28,2.56,42.24,16,65.92c1.056,1.856,2.496,3.552,3.68,5.36
		C20.368,142.208,0,196.672,0,256c0,141.392,114.608,255.984,256,256c141.392,0,255.984-114.608,256-256
		C512,196.672,491.632,142.208,457.76,98.8z M414.4,414.4C373.76,455.04,317.76,480,256,480s-117.76-24.96-158.4-65.6
		S32,317.76,32,256c0-49.28,16-94.72,43.2-131.84c6.4-9.28,14.08-18.24,22.4-26.56c14.4-14.4,30.4-26.56,48-36.48
		C178.24,42.56,216,32,256,32s77.76,10.56,110.4,29.12c17.6,9.92,33.6,22.08,48,36.48c8.32,8.32,16,17.28,22.4,26.56
		C464,161.28,480,206.72,480,256C480,317.76,455.04,373.76,414.4,414.4z"/>
</g>
<g>
</g>
<g>
</g>
<g>
</g>
<g>
</g>
<g>
</g>
<g>
</g>
<g>
</g>
<g>
</g>
<g>
</g>
<g>
</g>
<g>
</g>
<g>
</g>
<g>
</g>
<g>
</g>
<g>
</g>
</svg>
