<?xml version="1.0" encoding="iso-8859-1"?>
<!-- Generator: Adobe Illustrator 19.0.0, SVG Export Plug-In . SVG Version: 6.00 Build 0)  -->
<svg version="1.1" id="Capa_1" xmlns="http://www.w3.org/2000/svg" xmlns:xlink="http://www.w3.org/1999/xlink" x="0px" y="0px"
	 viewBox="0 0 512 512" style="enable-background:new 0 0 512 512;" xml:space="preserve">
<polygon style="fill:#FFCE2D;" points="454.154,139.122 359.227,118.441 310.224,34.552 261.221,118.441 166.294,139.122 
	230.937,211.649 221.271,308.32 310.224,269.255 399.177,308.32 389.511,211.649 "/>
<polyline style="fill:#FFAB2D;" points="310.224,269.255 399.177,308.32 389.511,211.649 454.154,139.122 359.227,118.441 
	310.224,34.552 "/>
<polygon style="fill:#FFE3BA;" points="406,344.208 406,329.939 314.776,310.58 271.5,286.168 170.489,286.168 106.796,321.266 
	99,321.266 99,444.382 153.517,444.382 201.994,476.7 397.606,476.7 512,413.973 512,344.208 "/>
<rect y="286.108" style="fill:#B7E4F8;" width="121.67" height="191.34"/>
<polygon style="fill:#FFCD81;" points="406,360.779 276,360.779 276,390.779 436,390.779 436,344.208 406,344.208 "/>
<rect x="60.833" y="286.108" style="fill:#93D6F4;" width="60.833" height="191.34"/>
<rect x="42.01" y="362.958" style="fill:#388CB2;" width="37.638" height="37.638"/>
<g>
</g>
<g>
</g>
<g>
</g>
<g>
</g>
<g>
</g>
<g>
</g>
<g>
</g>
<g>
</g>
<g>
</g>
<g>
</g>
<g>
</g>
<g>
</g>
<g>
</g>
<g>
</g>
<g>
</g>
</svg>
