<svg id="Capa_1" enable-background="new 0 0 512 512" height="512" viewBox="0 0 512 512" width="512" xmlns="http://www.w3.org/2000/svg"><g><g><path d="m269.692 7.5h-30.654c-6.245 0-11.308 5.063-11.308 11.308v133.438h53.27v-133.438c0-6.245-5.063-11.308-11.308-11.308z" fill="#bed8fb"/><path d="m272.962 7.5h-28.346c6.245 0 11.308 5.063 11.308 11.308v133.438h28.346v-133.438c.001-6.245-5.062-11.308-11.308-11.308z" fill="#9dc6fb"/><path d="m404.795 490.568 3.149-60.137h-307.261l3.149 60.137c.409 7.81 6.86 13.932 14.681 13.932h271.602c7.82 0 14.271-6.122 14.68-13.932z" fill="#365e7d"/><path d="m81.852 70.826 20.253 386.745h304.418l20.253-386.745z" fill="#407093"/><path d="m256 387.006c-8.284 0-15-6.716-15-15v-215.615c0-8.284 6.716-15 15-15 8.284 0 15 6.716 15 15v215.615c0 8.284-6.716 15-15 15z" fill="#80b4fb"/><g fill="#80b4fb"><path d="m160.728 387.006c-8.284 0-15-6.716-15-15v-215.615c0-8.284 6.716-15 15-15 8.284 0 15 6.716 15 15v215.615c0 8.284-6.715 15-15 15z"/><path d="m351.272 387.006c-8.284 0-15-6.716-15-15v-215.615c0-8.284 6.716-15 15-15 8.284 0 15 6.716 15 15v215.615c0 8.284-6.716 15-15 15z"/></g><path d="m380.135 430.431-3.149 60.137c-.409 7.81-6.86 13.932-14.681 13.932h31.181c7.82 0 14.272-6.122 14.681-13.932l3.149-60.137z" fill="#2b4d66"/><path d="m398.967 70.826-20.253 386.744h31.181l20.253-386.744z" fill="#365e7d"/><path d="m446 75.35v-9.047c0-9.368-7.594-16.962-16.962-16.962h-349.448c-9.368 0-16.963 7.594-16.963 16.962v9.047c0 9.368 7.594 16.962 16.963 16.962h349.447c9.369 0 16.963-7.594 16.963-16.962z" fill="#9dc6fb"/><path d="m432.41 49.341h-31.181c9.368 0 16.962 7.594 16.962 16.962v9.047c0 9.368-7.594 16.962-16.962 16.962h31.181c9.368 0 16.963-7.594 16.963-16.962v-9.047c-.001-9.368-7.595-16.962-16.963-16.962z" fill="#80b4fb"/></g><g><path d="m233.5 156.391v215.615c0 12.407 10.094 22.5 22.5 22.5s22.5-10.093 22.5-22.5v-215.615c0-12.407-10.094-22.5-22.5-22.5s-22.5 10.093-22.5 22.5zm30 0v215.615c0 4.136-3.364 7.5-7.5 7.5s-7.5-3.364-7.5-7.5v-215.615c0-4.136 3.364-7.5 7.5-7.5s7.5 3.364 7.5 7.5z"/><path d="m138.229 156.391v215.615c0 12.407 10.094 22.5 22.5 22.5s22.5-10.093 22.5-22.5v-215.615c0-12.407-10.094-22.5-22.5-22.5s-22.5 10.093-22.5 22.5zm30 0v215.615c0 4.136-3.364 7.5-7.5 7.5s-7.5-3.364-7.5-7.5v-215.615c0-4.136 3.364-7.5 7.5-7.5s7.5 3.364 7.5 7.5z"/><path d="m328.771 156.391v215.615c0 12.407 10.094 22.5 22.5 22.5s22.5-10.093 22.5-22.5v-215.615c0-12.407-10.094-22.5-22.5-22.5s-22.5 10.093-22.5 22.5zm30 0v215.615c0 4.136-3.364 7.5-7.5 7.5s-7.5-3.364-7.5-7.5v-215.615c0-4.136 3.364-7.5 7.5-7.5s7.5 3.364 7.5 7.5z"/><path d="m432.409 41.841h-140.638v-23.033c0-10.37-8.438-18.808-18.808-18.808h-33.926c-10.37 0-18.808 8.438-18.808 18.808v23.033h-140.638c-13.489 0-24.463 10.974-24.463 24.462v9.046c0 12.216 9 22.368 20.718 24.176.886 16.913 19.582 373.945 20.497 391.434.617 11.799 10.355 21.041 22.171 21.041h33.626c4.143 0 7.5-3.358 7.5-7.5s-3.357-7.5-7.5-7.5h-33.626c-3.832 0-6.991-2.997-7.191-6.824l-1.314-25.105h291.984l-1.315 25.106c-.199 3.827-3.358 6.824-7.19 6.824h-206.348c-4.143 0-7.5 3.358-7.5 7.5s3.357 7.5 7.5 7.5h206.347c11.815 0 21.554-9.242 22.17-21.04 2.843-54.28 15.176-289.798 15.4-294.091.217-4.136-2.961-7.665-7.097-7.882-4.148-.209-7.666 2.961-7.883 7.098l-13.299 253.984h-293.556l-18.341-350.257h330.238l-3.211 61.321c-.216 4.136 2.962 7.665 7.098 7.882 4.147.215 7.666-2.962 7.883-7.098l3.266-62.392c11.718-1.808 20.717-11.961 20.717-24.176v-9.046c0-13.49-10.974-24.463-24.463-24.463zm-197.18-23.033c0-2.1 1.708-3.808 3.808-3.808h33.926c2.1 0 3.808 1.708 3.808 3.808v23.033h-41.541v-23.033zm206.643 56.542c0 5.218-4.245 9.463-9.463 9.463-2.335 0-346.087 0-352.818 0-5.218 0-9.463-4.245-9.463-9.463v-9.046c0-5.218 4.245-9.462 9.463-9.462h352.818c5.218 0 9.463 4.245 9.463 9.462z"/></g></g></svg>